<svg viewBox="0 0 16 17" xmlns="http://www.w3.org/2000/svg">
  <path
    d="M11.9999 7.44465C11.8231 7.44465 11.6535 7.51489 11.5285 7.63991C11.4035 7.76494 11.3333 7.93451 11.3333 8.11132V12.898C11.3333 13.0748 11.263 13.2444 11.138 13.3694C11.013 13.4944 10.8434 13.5647 10.6666 13.5647H3.33325C3.15644 13.5647 2.98687 13.4944 2.86185 13.3694C2.73682 13.2444 2.66659 13.0748 2.66659 12.898V5.56465C2.66659 5.38784 2.73682 5.21827 2.86185 5.09325C2.98687 4.96822 3.15644 4.89798 3.33325 4.89798H8.11992C8.29673 4.89798 8.4663 4.82775 8.59132 4.70272C8.71635 4.5777 8.78659 4.40813 8.78659 4.23132C8.78659 4.05451 8.71635 3.88494 8.59132 3.75991C8.4663 3.63489 8.29673 3.56465 8.11992 3.56465H3.33325C2.80282 3.56465 2.29411 3.77537 1.91904 4.15044C1.54397 4.52551 1.33325 5.03422 1.33325 5.56465V12.898C1.33325 13.4284 1.54397 13.9371 1.91904 14.3122C2.29411 14.6873 2.80282 14.898 3.33325 14.898H10.6666C11.197 14.898 11.7057 14.6873 12.0808 14.3122C12.4559 13.9371 12.6666 13.4284 12.6666 12.898V8.11132C12.6666 7.93451 12.5963 7.76494 12.4713 7.63991C12.3463 7.51489 12.1767 7.44465 11.9999 7.44465ZM14.6133 1.97798C14.5456 1.81509 14.4162 1.68563 14.2533 1.61798C14.1731 1.58382 14.087 1.5657 13.9999 1.56465H9.99992C9.82311 1.56465 9.65354 1.63489 9.52851 1.75991C9.40349 1.88494 9.33325 2.05451 9.33325 2.23132C9.33325 2.40813 9.40349 2.5777 9.52851 2.70272C9.65354 2.82775 9.82311 2.89798 9.99992 2.89798H12.3933L5.52659 9.75799C5.4641 9.81996 5.4145 9.89369 5.38066 9.97493C5.34681 10.0562 5.32939 10.1433 5.32939 10.2313C5.32939 10.3193 5.34681 10.4065 5.38066 10.4877C5.4145 10.5689 5.4641 10.6427 5.52659 10.7047C5.58856 10.7671 5.66229 10.8167 5.74353 10.8506C5.82477 10.8844 5.91191 10.9019 5.99992 10.9019C6.08793 10.9019 6.17506 10.8844 6.2563 10.8506C6.33754 10.8167 6.41128 10.7671 6.47325 10.7047L13.3333 3.83798V6.23132C13.3333 6.40813 13.4035 6.5777 13.5285 6.70272C13.6535 6.82775 13.8231 6.89798 13.9999 6.89798C14.1767 6.89798 14.3463 6.82775 14.4713 6.70272C14.5963 6.5777 14.6666 6.40813 14.6666 6.23132V2.23132C14.6655 2.1442 14.6474 2.05813 14.6133 1.97798Z"
  ></path>
</svg>
