<svg xmlns="http://www.w3.org/2000/svg" width="21" height="20">
  <g>
    <path d="M 0 20 L 0 0 L 20 0 L 20 20 Z" fill="transparent"></path>
    <path
      d="M 10 0.247 C 7.625 0.247 5.328 1.092 3.52 2.63 C 1.712 4.169 0.509 6.301 0.129 8.645 C -0.251 10.989 0.215 13.392 1.444 15.423 C 2.673 17.455 4.585 18.983 6.837 19.734 C 7.337 19.822 7.525 19.522 7.525 19.259 C 7.525 19.022 7.512 18.234 7.512 17.397 C 5 17.859 4.35 16.784 4.15 16.222 C 3.928 15.675 3.576 15.19 3.125 14.809 C 2.775 14.622 2.275 14.159 3.113 14.147 C 3.432 14.181 3.739 14.293 4.007 14.471 C 4.274 14.649 4.495 14.89 4.65 15.172 C 4.787 15.417 4.971 15.634 5.191 15.808 C 5.412 15.983 5.665 16.112 5.935 16.189 C 6.206 16.265 6.489 16.288 6.768 16.255 C 7.047 16.222 7.317 16.134 7.563 15.997 C 7.606 15.488 7.832 15.013 8.2 14.659 C 5.975 14.409 3.65 13.547 3.65 9.722 C 3.636 8.728 4.003 7.766 4.675 7.034 C 4.369 6.17 4.405 5.222 4.775 4.384 C 4.775 4.384 5.613 4.122 7.525 5.409 C 9.161 4.959 10.889 4.959 12.525 5.409 C 14.437 4.109 15.275 4.384 15.275 4.384 C 15.645 5.222 15.681 6.17 15.375 7.034 C 16.049 7.765 16.416 8.727 16.4 9.722 C 16.4 13.559 14.062 14.409 11.837 14.659 C 12.076 14.901 12.26 15.192 12.376 15.511 C 12.493 15.83 12.539 16.17 12.512 16.509 C 12.512 17.847 12.5 18.922 12.5 19.259 C 12.5 19.522 12.687 19.834 13.187 19.734 C 15.436 18.977 17.343 17.445 18.566 15.413 C 19.79 13.38 20.252 10.979 19.869 8.637 C 19.486 6.295 18.283 4.166 16.475 2.629 C 14.668 1.092 12.373 0.248 10 0.247 Z"
      fill="currentColor"></path>
  </g>
</svg>
