<svg viewBox="0 0 20 20" fill="none" xmlns="http://www.w3.org/2000/svg">
  <g clip-path="url(#clip0_655_19565)">
    <path fill-rule="evenodd" clip-rule="evenodd"
      d="M0 0H20V20H0V0ZM9.32607 11.3083L5.8932 4.87747H7.46207L9.4814 8.9472C9.51247 9.01969 9.54871 9.09477 9.59013 9.17243C9.63156 9.2501 9.6678 9.33036 9.69887 9.4132C9.71958 9.44427 9.73511 9.47274 9.74547 9.49863C9.75582 9.52452 9.76618 9.54782 9.77653 9.56853C9.82831 9.67209 9.87491 9.77306 9.91633 9.87143C9.95776 9.96981 9.994 10.0604 10.0251 10.1433C10.1079 9.96722 10.1985 9.77823 10.2969 9.5763C10.3953 9.37437 10.4962 9.16467 10.5998 8.9472L12.6502 4.87747H14.1103L10.6464 11.3859V15.5333H9.32607V11.3083Z"
      fill="#C9C5D0" />
  </g>
  <defs>
    <clipPath id="clip0_655_19565">
      <rect width="20" height="20" fill="white" />
    </clipPath>
  </defs>
</svg>
