<svg
  width="19"
  height="20"
  viewBox="0 0 19 20"
  fill="none"
  xmlns="http://www.w3.org/2000/svg"
>
  <path
    fill-rule="evenodd"
    clip-rule="evenodd"
    d="M0.833344 3.12293C0.833344 2.54829 0.833344 2.26097 0.944769 2.02971C1.04296 1.82591 1.20089 1.65318 1.39972 1.53209C1.62535 1.39469 1.92533 1.35391 2.52527 1.27234L11.0816 0.108999C11.8583 0.00340327 12.2466 -0.0493948 12.5484 0.0620841C12.8133 0.159945 13.0343 0.341633 13.1741 0.57636C13.3333 0.843751 13.3333 1.2157 13.3333 1.95959V18.0404C13.3333 18.7843 13.3333 19.1562 13.1741 19.4236C13.0343 19.6584 12.8133 19.8401 12.5484 19.9379C12.2466 20.0494 11.8583 19.9966 11.0816 19.891H11.0816H11.0816L2.52527 18.7277C1.92533 18.6461 1.62535 18.6053 1.39972 18.4679C1.20089 18.3468 1.04296 18.1741 0.944769 17.9703C0.833344 17.739 0.833344 17.4517 0.833344 16.8771V3.12293ZM10 8.54494C10 8.36995 10 8.28246 10.0294 8.2133C10.0553 8.15239 10.0968 8.1015 10.1486 8.06713C10.2075 8.0281 10.2853 8.02018 10.441 8.00434L11.1379 7.9334C11.3213 7.91474 11.413 7.9054 11.4838 7.93965C11.546 7.96973 11.5974 8.02228 11.6298 8.08891C11.6667 8.16475 11.6667 8.26783 11.6667 8.474V11.526C11.6667 11.7322 11.6667 11.8353 11.6298 11.9111C11.5974 11.9777 11.546 12.0303 11.4838 12.0604C11.413 12.0946 11.3213 12.0853 11.1379 12.0666L10.441 11.9957C10.2853 11.9798 10.2075 11.9719 10.1486 11.9329C10.0968 11.8985 10.0553 11.8476 10.0294 11.7867C10 11.7175 10 11.6301 10 11.4551V8.54494ZM15.6852 2.08333H14.5833V18.3333H15.6852C16.3204 18.3333 16.6381 18.3333 16.8807 18.2094C17.0941 18.1003 17.2676 17.9263 17.3764 17.7122C17.5 17.4689 17.5 17.1504 17.5 16.5133V3.90333C17.5 3.26627 17.5 2.94774 17.3764 2.70442C17.2676 2.49038 17.0941 2.31637 16.8807 2.20731C16.6381 2.08333 16.3204 2.08333 15.6852 2.08333Z"
    fill="url(#paint0_linear_3345_2728)"></path>
  <defs>
    <linearGradient
      id="paint0_linear_3345_2728"
      x1="-4.32539"
      y1="13.8314"
      x2="16.204"
      y2="5.43903"
      gradientUnits="userSpaceOnUse"
    >
      <stop stop-color="#4B2EFB"></stop>
      <stop offset="1" stop-color="#E65FFC"></stop>
    </linearGradient>
  </defs>
</svg>
