<svg viewBox="0 0 20 20" fill="none" xmlns="http://www.w3.org/2000/svg">
  <g clip-path="url(#clip0_655_19568)">
    <path
      d="M7.80258 11.9961C7.24581 11.9961 6.79871 11.5484 6.79871 11.0039C6.79871 10.4477 7.24645 10 7.80258 10C8.35097 10 8.79484 10.4477 8.79484 11.0039C8.79484 11.5523 8.3471 11.9961 7.80258 11.9961ZM20 10C20 15.5245 15.5239 20 10 20C4.47613 20 0 15.5239 0 10C0 4.47548 4.47613 0 10 0C15.5239 0 20 4.47613 20 10ZM14.6652 8.33871C14.2865 8.33871 13.9516 8.49613 13.7052 8.74194C12.8019 8.11677 11.5845 7.71355 10.2335 7.66903L10.9348 4.51161L13.169 5.01548C13.169 5.56387 13.6168 6.00774 14.1606 6.00774C14.7174 6.00774 15.1645 5.55226 15.1645 5.00387C15.1645 4.45548 14.7168 4 14.1606 4C13.7697 4 13.4348 4.23419 13.2697 4.55677L10.8019 4.00839C10.6806 3.97613 10.5561 4.06516 10.5239 4.18581L9.75355 7.66968C8.41484 7.72645 7.20903 8.12516 6.30581 8.75032C6.06 8.49226 5.7129 8.33935 5.33419 8.33935C3.9271 8.33935 3.4671 10.2303 4.75355 10.8716C4.70903 11.0735 4.68516 11.2826 4.68516 11.4968C4.68516 13.6174 7.07226 15.3355 10.0077 15.3355C12.9555 15.3355 15.3426 13.6174 15.3426 11.4968C15.3426 11.2832 15.3181 11.0613 15.2658 10.8594C16.5277 10.2142 16.0639 8.33871 14.6652 8.33871ZM11.8871 13.0245C11.1535 13.7581 8.81871 13.7465 8.1129 13.0245C8.02452 12.9361 7.8671 12.9361 7.77806 13.0245C7.67742 13.1252 7.67742 13.2826 7.77806 13.3716C8.69742 14.291 11.2981 14.291 12.2219 13.3716C12.3226 13.2826 12.3226 13.1258 12.2219 13.0245C12.1329 12.9361 11.9761 12.9361 11.8871 13.0245ZM12.1974 10C11.649 10 11.2052 10.4477 11.2052 11.0039C11.2052 11.5523 11.6529 11.9961 12.1974 11.9961C12.7542 11.9961 13.2013 11.5484 13.2013 11.0039C13.2013 10.4477 12.7574 10 12.1974 10Z"
      fill="#C9C5D0" />
  </g>
  <defs>
    <clipPath id="clip0_655_19568">
      <rect width="20" height="20" fill="white" />
    </clipPath>
  </defs>
</svg>
