<svg xmlns="http://www.w3.org/2000/svg" width="30" height="27">
  <g transform="translate(0.739 0.712)">
    <g>
      <defs>
        <linearGradient id="idBY23B7UvRg-21" x1="0.7066768629572956" x2="0.2933231370427044" y1="1"
          y2="0">
          <stop offset="0" stop-color="rgb(159,73,247)" stop-opacity="1"></stop>
          <stop offset="1" stop-color="rgb(159,73,247)" stop-opacity="1"></stop>
        </linearGradient>
      </defs>
      <path
        d="M 17.949 20.206 C 19.58 20.206 20.903 21.536 20.903 23.177 C 20.903 24.818 19.58 26.148 17.949 26.148 L 0.909 26.148 C 0.407 26.148 0 25.739 0 25.234 L 0 21.12 C 0 20.615 0.407 20.206 0.909 20.206 Z"
        fill="url(#idBY23B7UvRg-21)"></path>
    </g>
    <g>
      <defs>
        <linearGradient id="idVGfWfEiXgg1837333174" x1="5.551115123125783e-17" x2="1"
          y1="0.18675633865909513" y2="0.8132436613409049">
          <stop offset="0" stop-color="rgb(55,185,254)" stop-opacity="1"></stop>
          <stop offset="1" stop-color="rgb(0,166,255)" stop-opacity="1"></stop>
        </linearGradient>
      </defs>
      <path
        d="M 14.609 9.156 C 13.793 7.735 14.278 5.918 15.69 5.097 C 17.103 4.277 18.909 4.764 19.725 6.185 L 28.245 21.031 C 28.496 21.468 28.347 22.027 27.912 22.28 L 24.371 24.337 C 23.936 24.589 23.38 24.44 23.129 24.002 Z"
        fill="url(#idVGfWfEiXgg1837333174)"></path>
    </g>
    <g>
      <defs>
        <linearGradient id="iddqxTqYgVig-1329651254" x1="0.6939958199328627"
          x2="0.30600418006713725" y1="0" y2="1">
          <stop offset="0" stop-color="rgb(230,95,252)" stop-opacity="1"></stop>
          <stop offset="1" stop-color="rgb(181,0,211)" stop-opacity="1"></stop>
        </linearGradient>
      </defs>
      <path
        d="M 1.282 15.303 C 0.466 16.725 0.95 18.542 2.363 19.362 C 3.776 20.183 5.582 19.696 6.398 18.275 L 14.918 3.429 C 15.169 2.991 15.02 2.432 14.585 2.18 L 11.044 0.123 C 10.609 -0.13 10.053 0.02 9.802 0.457 Z"
        fill="url(#iddqxTqYgVig-1329651254)"></path>
    </g>
  </g>
</svg>
