<svg xmlns="http://www.w3.org/2000/svg" viewBox="0 0 647 140">
  <path
    d="M181.1 110L206.3 35.5H226.9L252.1 110H235.2L230.2 94.8H202.9L197.9 110H181.1ZM207.2 81.3H225.9L214.5 46.1H218.7L207.2 81.3Z"
    fill="black" />
  <path
    d="M279.366 111.2C274.966 111.2 271.199 110.267 268.066 108.4C264.999 106.467 262.666 103.8 261.066 100.4C259.466 97 258.666 93.0333 258.666 88.5V55.4H273.666V87.3C273.666 89.3667 274.066 91.2 274.866 92.8C275.732 94.3333 276.932 95.5333 278.466 96.4C279.999 97.2667 281.732 97.7 283.666 97.7C285.666 97.7 287.399 97.2667 288.866 96.4C290.399 95.5333 291.566 94.3333 292.366 92.8C293.232 91.2 293.666 89.3667 293.666 87.3V55.4H308.666V110H294.666V99.2L295.466 101.6C294.199 104.867 292.132 107.3 289.266 108.9C286.466 110.433 283.166 111.2 279.366 111.2Z"
    fill="black" />
  <path
    d="M347.929 110.6C341.329 110.6 336.196 108.833 332.529 105.3C328.929 101.7 327.129 96.7 327.129 90.3V68.4H317.929V55.4H318.429C321.229 55.4 323.362 54.7 324.829 53.3C326.362 51.9 327.129 49.8 327.129 47V43H342.129V55.4H354.929V68.4H342.129V89.3C342.129 91.1667 342.462 92.7333 343.129 94C343.796 95.2 344.829 96.1 346.229 96.7C347.629 97.3 349.362 97.6 351.429 97.6C351.896 97.6 352.429 97.5667 353.029 97.5C353.629 97.4333 354.262 97.3667 354.929 97.3V110C353.929 110.133 352.796 110.267 351.529 110.4C350.262 110.533 349.062 110.6 347.929 110.6Z"
    fill="black" />
  <path
    d="M365.719 110V34.3H380.719V66.2L378.919 63.8C380.185 60.5333 382.219 58.1333 385.019 56.6C387.885 55 391.219 54.2 395.019 54.2C399.152 54.2 402.752 55.0667 405.819 56.8C408.952 58.5333 411.385 60.9667 413.119 64.1C414.852 67.1667 415.719 70.7667 415.719 74.9V110H400.719V78.1C400.719 75.9667 400.285 74.1333 399.419 72.6C398.619 71.0667 397.452 69.8667 395.919 69C394.452 68.1333 392.719 67.7 390.719 67.7C388.785 67.7 387.052 68.1333 385.519 69C383.985 69.8667 382.785 71.0667 381.919 72.6C381.119 74.1333 380.719 75.9667 380.719 78.1V110H365.719Z"
    fill="black" />
  <path
    d="M458.651 110L439.151 35.5H455.951L470.651 97.9H466.151L481.651 35.5H497.651L513.151 97.9H508.651L523.351 35.5H540.151L520.651 110H502.651L487.051 50H492.251L476.651 110H458.651Z"
    fill="black" />
  <path d="M546.773 110V55.4H561.773V110H546.773ZM546.773 50.5V35.5H561.773V50.5H546.773Z"
    fill="black" />
  <path
    d="M572.75 110V34.3H587.75V82.8L582.15 81L606.25 55.4H624.75L604.95 77.4L624.65 110H607.65L591.15 82.3L599.85 80.1L583.15 98.3L587.75 89.6V110H572.75Z"
    fill="black" />
  <path d="M631.344 110V55.4H646.344V110H631.344ZM631.344 50.5V35.5H646.344V50.5H631.344Z"
    fill="black" />
  <path
    d="M91.0571 100.263C98.2368 100.263 104.057 106.084 104.057 113.263C104.057 120.443 98.2368 126.263 91.0571 126.263H16.0571C13.8479 126.263 12.0571 124.473 12.0571 122.263V104.263C12.0571 102.054 13.8479 100.263 16.0571 100.263H91.0571Z"
    fill="url(#paint0_linear_3338_4612)" />
  <path
    d="M76.3571 51.9218C72.7672 45.704 74.8976 37.7533 81.1154 34.1634C87.3332 30.5736 95.2839 32.704 98.8737 38.9218L136.374 103.874C137.478 105.787 136.823 108.233 134.91 109.338L119.321 118.338C117.408 119.442 114.962 118.787 113.857 116.874L76.3571 51.9218Z"
    fill="url(#paint1_linear_3338_4612)" />
  <path
    d="M17.7 78.816C14.1101 85.0338 16.2405 92.9845 22.4583 96.5743C28.6761 100.164 36.6268 98.0338 40.2166 91.816L77.7166 26.8641C78.8212 24.9509 78.1657 22.5046 76.2525 21.4L60.6641 12.4C58.7509 11.2954 56.3045 11.9509 55.2 13.8641L17.7 78.816Z"
    fill="url(#paint2_linear_3338_4612)" />
  <defs>
    <linearGradient id="paint0_linear_3338_4612" x1="163" y1="135.2" x2="129.808" y2="55.5133"
      gradientUnits="userSpaceOnUse">
      <stop offset="0.0323714" stop-color="#9F49F7" />
      <stop offset="1" stop-color="#9F49F7" />
    </linearGradient>
    <linearGradient id="paint1_linear_3338_4612" x1="84.9784" y1="40.8156" x2="147.033" y2="79.5554"
      gradientUnits="userSpaceOnUse">
      <stop stop-color="#37B9FE" />
      <stop offset="1" stop-color="#00A6FF" />
    </linearGradient>
    <linearGradient id="paint2_linear_3338_4612" x1="67.6571" y1="10.4635" x2="32.8571" y2="98.4635"
      gradientUnits="userSpaceOnUse">
      <stop stop-color="#E65FFC" />
      <stop offset="1" stop-color="#B500D3" />
    </linearGradient>
  </defs>
</svg>
  
