<svg xmlns="http://www.w3.org/2000/svg" viewBox="0 0 647 140">
  <path
    d="M 181.1 110 L 206.3 35.5 L 226.9 35.5 L 252.1 110 L 235.2 110 L 230.2 94.8 L 202.9 94.8 L 197.9 110 Z M 207.2 81.3 L 225.9 81.3 L 214.5 46.1 L 218.7 46.1 Z"
    fill="rgb(255,255,255)"></path>
  <path
    d="M 279.366 111.2 C 274.966 111.2 271.199 110.267 268.066 108.4 C 264.999 106.467 262.666 103.8 261.066 100.4 C 259.466 97 258.666 93.033 258.666 88.5 L 258.666 55.4 L 273.666 55.4 L 273.666 87.3 C 273.666 89.367 274.066 91.2 274.866 92.8 C 275.732 94.333 276.932 95.533 278.466 96.4 C 279.999 97.267 281.732 97.7 283.666 97.7 C 285.666 97.7 287.399 97.267 288.866 96.4 C 290.399 95.533 291.566 94.333 292.366 92.8 C 293.232 91.2 293.666 89.367 293.666 87.3 L 293.666 55.4 L 308.666 55.4 L 308.666 110 L 294.666 110 L 294.666 99.2 L 295.466 101.6 C 294.199 104.867 292.132 107.3 289.266 108.9 C 286.466 110.433 283.166 111.2 279.366 111.2 Z"
    fill="rgb(255,255,255)"></path>
  <path
    d="M 347.929 110.6 C 341.329 110.6 336.196 108.833 332.529 105.3 C 328.929 101.7 327.129 96.7 327.129 90.3 L 327.129 68.4 L 317.929 68.4 L 317.929 55.4 L 318.429 55.4 C 321.229 55.4 323.362 54.7 324.829 53.3 C 326.362 51.9 327.129 49.8 327.129 47 L 327.129 43 L 342.129 43 L 342.129 55.4 L 354.929 55.4 L 354.929 68.4 L 342.129 68.4 L 342.129 89.3 C 342.129 91.167 342.462 92.733 343.129 94 C 343.796 95.2 344.829 96.1 346.229 96.7 C 347.629 97.3 349.362 97.6 351.429 97.6 C 351.896 97.6 352.429 97.567 353.029 97.5 C 353.629 97.433 354.262 97.367 354.929 97.3 L 354.929 110 C 353.929 110.133 352.796 110.267 351.529 110.4 C 350.262 110.533 349.062 110.6 347.929 110.6 Z"
    fill="rgb(255,255,255)"></path>
  <path
    d="M 365.719 110 L 365.719 34.3 L 380.719 34.3 L 380.719 66.2 L 378.919 63.8 C 380.185 60.533 382.219 58.133 385.019 56.6 C 387.885 55 391.219 54.2 395.019 54.2 C 399.152 54.2 402.752 55.067 405.819 56.8 C 408.952 58.533 411.385 60.967 413.119 64.1 C 414.852 67.167 415.719 70.767 415.719 74.9 L 415.719 110 L 400.719 110 L 400.719 78.1 C 400.719 75.967 400.285 74.133 399.419 72.6 C 398.619 71.067 397.452 69.867 395.919 69 C 394.452 68.133 392.719 67.7 390.719 67.7 C 388.785 67.7 387.052 68.133 385.519 69 C 383.985 69.867 382.785 71.067 381.919 72.6 C 381.119 74.133 380.719 75.967 380.719 78.1 L 380.719 110 Z"
    fill="rgb(255,255,255)"></path>
  <path
    d="M 458.651 110 L 439.151 35.5 L 455.951 35.5 L 470.651 97.9 L 466.151 97.9 L 481.651 35.5 L 497.651 35.5 L 513.151 97.9 L 508.651 97.9 L 523.351 35.5 L 540.151 35.5 L 520.651 110 L 502.651 110 L 487.051 50 L 492.251 50 L 476.651 110 Z"
    fill="rgb(255,255,255)"></path>
  <path
    d="M 546.773 110 L 546.773 55.4 L 561.773 55.4 L 561.773 110 Z M 546.773 50.5 L 546.773 35.5 L 561.773 35.5 L 561.773 50.5 Z"
    fill="rgb(255,255,255)"></path>
  <path
    d="M 572.75 110 L 572.75 34.3 L 587.75 34.3 L 587.75 82.8 L 582.15 81 L 606.25 55.4 L 624.75 55.4 L 604.95 77.4 L 624.65 110 L 607.65 110 L 591.15 82.3 L 599.85 80.1 L 583.15 98.3 L 587.75 89.6 L 587.75 110 Z"
    fill="rgb(255,255,255)"></path>
  <path
    d="M 631.344 110 L 631.344 55.4 L 646.344 55.4 L 646.344 110 Z M 631.344 50.5 L 631.344 35.5 L 646.344 35.5 L 646.344 50.5 Z"
    fill="rgb(255,255,255)"></path>
  <g>
    <defs>
      <linearGradient id="idb6yHwfo49g-21" x1="0.7066768629572956" x2="0.2933231370427044" y1="1"
        y2="0">
        <stop offset="0" stop-color="rgb(159,73,247)" stop-opacity="1"></stop>
        <stop offset="1" stop-color="rgb(159,73,247)" stop-opacity="1"></stop>
      </linearGradient>
    </defs>
    <path
      d="M 91.057 100.263 C 98.237 100.263 104.057 106.084 104.057 113.263 C 104.057 120.443 98.237 126.263 91.057 126.263 L 16.057 126.263 C 13.848 126.263 12.057 124.473 12.057 122.263 L 12.057 104.263 C 12.057 102.054 13.848 100.263 16.057 100.263 Z"
      fill="url(#idb6yHwfo49g-21)"></path>
  </g>
  <g>
    <defs>
      <linearGradient id="idz71BoC1qMg1837333174" x1="0" x2="1" y1="0.18675714047184894"
        y2="0.8132428595281511">
        <stop offset="0" stop-color="rgb(55,185,254)" stop-opacity="1"></stop>
        <stop offset="1" stop-color="rgb(0,166,255)" stop-opacity="1"></stop>
      </linearGradient>
    </defs>
    <path
      d="M 76.357 51.922 C 72.767 45.704 74.898 37.753 81.115 34.163 C 87.333 30.573 95.284 32.704 98.874 38.922 L 136.374 103.874 C 137.478 105.787 136.823 108.233 134.91 109.338 L 119.321 118.338 C 117.408 119.442 114.962 118.787 113.857 116.874 Z"
      fill="url(#idz71BoC1qMg1837333174)"></path>
  </g>
  <g>
    <defs>
      <linearGradient id="idF7zc9nYCjg-1329651254" x1="0.6939958199328627" x2="0.30600418006713725"
        y1="0" y2="1">
        <stop offset="0" stop-color="rgb(230,95,252)" stop-opacity="1"></stop>
        <stop offset="1" stop-color="rgb(181,0,211)" stop-opacity="1"></stop>
      </linearGradient>
    </defs>
    <path
      d="M 17.7 78.816 C 14.11 85.034 16.241 92.984 22.458 96.574 C 28.676 100.164 36.627 98.034 40.217 91.816 L 77.717 26.864 C 78.821 24.951 78.166 22.505 76.253 21.4 L 60.664 12.4 C 58.751 11.295 56.305 11.951 55.2 13.864 Z"
      fill="url(#idF7zc9nYCjg-1329651254)"></path>
  </g>
</svg>
